# xmcd
#
# Track frame offsets:
#	150
#	12127
#	19300
#	38020
#	50107
#	60995
#	74637
#	88245
#	98445
#	111882
#	119260
#	135657
#	151297
#	154580
#	164425
#	176862
#	189890
#	197340
#	203734
#	212815
#
# Disc length: 3003 seconds
#
# Revision: 1
# Processed by: cddbd v1.5.2PL0 Copyright (c) Steve Scherf et al.
# Submitted via: audiograbber 1.83.01
#
DISCID=0e0bb914
DTITLE=Various Artist - Rekiretki - 40 iloista joululaulua CD 2 2002
DYEAR=2002
DGENRE=Joululaulut
TTITLE0=Marion and Four Cats 1967 - Joulupukin maa
TTITLE1=Candomino-kuoro, Tapio Tiitu piano 1994 - Sinivuorten yö
TTITLE2=Mats Olssonin orkesteri 1959 - Tonttujen vahtiparaati
TTITLE3=Essi Wuorela 1994 - Helkkää pienet tiu'ut
TTITLE4=Candomino-kuoro, Tapio Tiitu urut 1994 - Jouluaattona (Oi terve, jouluk
TTITLE4=uusi)
TTITLE5=Jaakko Ryhänen ja studio-ork. 1995 - Nyt riemuiten tänne
TTITLE6=Finlandia Sinfonetta 1981 - Riemuitse, tytär Siionin
TTITLE7=Candomino-kuoro, Tapio Tiitu piano 1994 - Tonttujen jouluyö
TTITLE8=Fredi ja Hanna 1977 - Tonttu Torvinen
TTITLE9=Candomino-kuoro, Tapio Tiitu piano, Inna Vintturi huilu 1994 - Reippaha
TTITLE9=sti käypi askelet
TTITLE10=Virve Rosti 1978 - Jos joulua ei tänä vuonna tulekaan
TTITLE11=Meiju Suvas 1990 - Joulun tunnelma
TTITLE12=Tapiolan kuoro 1973 - Koska meillä on joulu
TTITLE13=Taika ja Jukka Kuoppamäki 1997 - Joulupukin maa
TTITLE14=Joel Hallikainen 1996 - Joulupukki matkaan jo käy
TTITLE15=Ylioppilaskunnan Laulajat 2000 - Poro
TTITLE16=Esko Linnavallin orkesteri 1971 - Kuuraparta
TTITLE17=Tapiolan kuoro 1973 - Joulukirkkoon (Kello löi jo viisi)
TTITLE18=Tonttu-orkesteri, Pekka Hartonen 1984 - Rekipolska
TTITLE19=Joel Hallikainen 1996 - Rekiretki
EXTD=YEAR: 2002
EXTT0=
EXTT1=
EXTT2=
EXTT3=
EXTT4=
EXTT5=
EXTT6=
EXTT7=
EXTT8=
EXTT9=
EXTT10=
EXTT11=
EXTT12=
EXTT13=
EXTT14=
EXTT15=
EXTT16=
EXTT17=
EXTT18=
EXTT19=
PLAYORDER=
